<svg id="Layer_1" data-name="Layer 1" xmlns="http://www.w3.org/2000/svg" viewBox="0 0 1001.95 756.95"><defs><style>.cls-1{fill:red;}</style></defs><title>FAVICON_1K_PIXELS</title><path d="M8.45,787.41l360.6-518.79v-4H41.37V123H590.78v99L238,734.2v4H596.4V879.91H8.45Z" transform="translate(-8.45 -122.96)"/><path class="cls-1" d="M898.13,697c-2.23-57.82-4.4-126.61-4.15-196.53h-2c-15.21,61.06-35.27,128.86-53.21,185.17l-58.43,186H696.57l-51.4-184.36c-15.38-56.18-31.23-123.94-43-186.82h-1.49c-2.36,64.89-5,138.53-7.89,198l-8.91,181H484l30.53-477.06h143.8L704.9,561.82c15.08,54.69,29.8,114.65,40.45,170.56h2.3c13-55.22,29.19-118.15,45.38-171.29L843.7,402.38H984.8l25.61,477.06H905.55Z" transform="translate(-8.45 -122.96)"/></svg>