<svg id="Layer_1" data-name="Layer 1" xmlns="http://www.w3.org/2000/svg" xmlns:xlink="http://www.w3.org/1999/xlink" viewBox="0 0 145.13 26.49"><defs><style>.cls-1{fill:url(#linear-gradient);}.cls-2{fill:red;}.cls-3{fill:url(#linear-gradient-2);}.cls-4{fill:url(#linear-gradient-3);}.cls-5{fill:lime;}.cls-6{fill:url(#linear-gradient-4);}</style><linearGradient id="linear-gradient" x1="124.35" y1="22.39" x2="130.09" y2="22.39" gradientUnits="userSpaceOnUse"><stop offset="0" stop-color="#333"/><stop offset="1"/></linearGradient><linearGradient id="linear-gradient-2" x1="127.91" y1="23.99" x2="132.07" y2="23.99" gradientUnits="userSpaceOnUse"><stop offset="0"/><stop offset="0.15"/><stop offset="1"/></linearGradient><linearGradient id="linear-gradient-3" x1="119.01" y1="23.99" x2="123.16" y2="23.99" xlink:href="#linear-gradient-2"/><linearGradient id="linear-gradient-4" x1="110.3" y1="22.39" x2="121.18" y2="22.39" xlink:href="#linear-gradient"/></defs><title>final</title><polygon class="cls-1" points="130.09 21.92 124.35 21.92 128.25 22.86 130.09 21.92"/><polygon points="136.48 0.15 132.66 10.04 136.68 10.04 139.09 3.91 145.13 3.91 145.13 0.15 136.48 0.15"/><polygon class="cls-2" points="130.68 6.29 110.89 6.29 117.82 20.93 132.66 20.93 135.59 12.87 131.62 12.86 130.09 16.97 120.79 16.97 117.42 10.04 129.29 10.04 130.68 6.29"/><circle class="cls-3" cx="129.99" cy="23.99" r="2.08"/><circle class="cls-4" cx="121.08" cy="23.99" r="2.08"/><path class="cls-5" d="M113.45,27.43" transform="translate(-3.35 -5.31)"/><polyline class="cls-6" points="121.18 21.92 110.3 21.92 119.35 22.86"/><path d="M3.35,28.21,15.77,10.33v-.14H4.48V5.31H23.41V8.72L11.25,26.37v.14H23.6v4.88H3.35Z" transform="translate(-3.35 -5.31)"/><path d="M27.2,18.5c0-2.36-.07-4.35-.15-6.05h5L32.28,15h.12a6.56,6.56,0,0,1,5.71-3,5.34,5.34,0,0,1,5.19,3.24h.08A7.89,7.89,0,0,1,45.84,13,6.78,6.78,0,0,1,49.43,12c3.62,0,6.38,2.56,6.38,8.22V31.39H50.08V21.11c0-2.75-.88-4.34-2.79-4.34a2.89,2.89,0,0,0-2.71,2.05,5.28,5.28,0,0,0-.21,1.5V31.39H38.64V20.78c0-2.39-.85-4-2.73-4a3,3,0,0,0-2.76,2.11,4.44,4.44,0,0,0-.22,1.5v11H27.2Z" transform="translate(-3.35 -5.31)"/><path d="M65,23.82c.18,2.44,2.59,3.6,5.34,3.6a15.88,15.88,0,0,0,5.21-.8l.8,4a18.33,18.33,0,0,1-6.86,1.2c-6.42,0-10.1-3.74-10.1-9.64,0-4.81,3-10.13,9.54-10.13,6.14,0,8.46,4.77,8.46,9.45a11.7,11.7,0,0,1-.21,2.34Zm6.92-4c0-1.42-.63-3.84-3.31-3.84-2.48,0-3.49,2.27-3.65,3.84Z" transform="translate(-3.35 -5.31)"/><path d="M80.92,18.7c0-2.78,0-4.62-.16-6.25h5.06L86,16h.14A5.55,5.55,0,0,1,91.29,12a4.89,4.89,0,0,1,1.26.11v5.53A7.65,7.65,0,0,0,91,17.51a3.8,3.8,0,0,0-4,3,7.35,7.35,0,0,0-.1,1.31v9.58h-5.9Z" transform="translate(-3.35 -5.31)"/><path d="M109.53,30.92a13.91,13.91,0,0,1-5.28.88c-6.12,0-10-3.75-10-9.7C94.24,16.57,98,12,105.07,12a13.46,13.46,0,0,1,4.49.75l-.92,4.37a8,8,0,0,0-3.29-.6,4.91,4.91,0,0,0-5.09,5.31,4.94,4.94,0,0,0,5.18,5.32,9,9,0,0,0,3.4-.61Z" transform="translate(-3.35 -5.31)"/></svg>